<svg width="15" height="31" viewBox="0 0 15 31" fill="none" xmlns="http://www.w3.org/2000/svg">
<path d="M14.6337 28.1815C14.7498 28.31 14.842 28.4625 14.9048 28.6304C14.9677 28.7982 15 28.9781 15 29.1598C15 29.3415 14.9677 29.5214 14.9048 29.6893C14.842 29.8572 14.7498 30.0097 14.6337 30.1382C14.5176 30.2666 14.3797 30.3685 14.228 30.4381C14.0763 30.5076 13.9137 30.5434 13.7494 30.5434C13.5852 30.5434 13.4226 30.5076 13.2709 30.4381C13.1192 30.3685 12.9813 30.2666 12.8652 30.1382L0.366567 16.3101C0.250359 16.1817 0.158172 16.0292 0.0952733 15.8613C0.032375 15.6934 0 15.5135 0 15.3318C0 15.15 0.032375 14.9701 0.0952733 14.8022C0.158172 14.6344 0.250359 14.4818 0.366567 14.3534L12.8652 0.525357C13.0997 0.265886 13.4178 0.120117 13.7494 0.120117C14.0811 0.120117 14.3992 0.265886 14.6337 0.525357C14.8682 0.784828 15 1.13675 15 1.50369C15 1.87064 14.8682 2.22256 14.6337 2.48203L3.01783 15.3318L14.6337 28.1815Z" fill="white"/>
</svg>
