<svg width="15" height="31" viewBox="0 0 15 31" fill="none" xmlns="http://www.w3.org/2000/svg">
<path d="M14.6334 16.19L2.13483 30.018C2.01871 30.1465 1.88085 30.2484 1.72912 30.318C1.5774 30.3875 1.41478 30.4233 1.25056 30.4233C1.08633 30.4233 0.923713 30.3875 0.771988 30.318C0.620264 30.2484 0.482403 30.1465 0.366278 30.018C0.250154 29.8896 0.158039 29.737 0.0951923 29.5692C0.032346 29.4013 0 29.2214 0 29.0397C0 28.858 0.032346 28.6781 0.0951923 28.5102C0.158039 28.3424 0.250154 28.1898 0.366278 28.0614L11.9822 15.2116L0.366278 2.36191C0.131754 2.10244 -2.47112e-09 1.75052 0 1.38358C2.47112e-09 1.01663 0.131754 0.66471 0.366278 0.40524C0.600803 0.145769 0.918887 2.73397e-09 1.25056 0C1.58222 -2.73397e-09 1.90031 0.145769 2.13483 0.40524L14.6334 14.2333C14.7496 14.3617 14.8418 14.5142 14.9047 14.6821C14.9676 14.85 15 15.0299 15 15.2116C15 15.3934 14.9676 15.5733 14.9047 15.7412C14.8418 15.909 14.7496 16.0616 14.6334 16.19Z" fill="white"/>
</svg>
