<svg width="30" height="30" viewBox="0 0 30 30" fill="none" xmlns="http://www.w3.org/2000/svg">
<path d="M27.6923 7.2H21.9231C21.9231 5.29044 21.1937 3.45909 19.8954 2.10883C18.597 0.758569 16.8361 0 15 0C13.1639 0 11.403 0.758569 10.1046 2.10883C8.80632 3.45909 8.07692 5.29044 8.07692 7.2H2.30769C1.69565 7.2 1.10868 7.45286 0.675907 7.90294C0.243131 8.35303 0 8.96348 0 9.6V27.6C0 28.2365 0.243131 28.847 0.675907 29.2971C1.10868 29.7471 1.69565 30 2.30769 30H27.6923C28.3043 30 28.8913 29.7471 29.3241 29.2971C29.7569 28.847 30 28.2365 30 27.6V9.6C30 8.96348 29.7569 8.35303 29.3241 7.90294C28.8913 7.45286 28.3043 7.2 27.6923 7.2ZM15 2.4C16.2241 2.4 17.398 2.90571 18.2636 3.80589C19.1291 4.70606 19.6154 5.92696 19.6154 7.2H10.3846C10.3846 5.92696 10.8709 4.70606 11.7364 3.80589C12.602 2.90571 13.7759 2.4 15 2.4ZM27.6923 27.6H2.30769V9.6H27.6923V27.6Z" fill="#021E25"/>
</svg>
