<svg width="70" height="63" viewBox="0 0 70 63" fill="none" xmlns="http://www.w3.org/2000/svg">
<path d="M67.2 13.9368L37.5846 0.55064C36.7933 0.189456 35.904 0 35 0C34.096 0 33.2067 0.189456 32.4154 0.55064L2.8 13.9424C1.95424 14.3247 1.24823 14.8875 0.755703 15.5721C0.263174 16.2568 0.00218837 17.0381 0 17.8345V44.4234C0.00218837 45.2198 0.263174 46.0011 0.755703 46.6858C1.24823 47.3704 1.95424 47.9333 2.8 48.3155L32.4154 61.7073C33.2067 62.0685 34.096 62.2579 35 62.2579C35.904 62.2579 36.7933 62.0685 37.5846 61.7073L67.2 48.3155C68.0458 47.9333 68.7518 47.3704 69.2443 46.6858C69.7368 46.0011 69.9978 45.2198 70 44.4234V17.8373C69.9996 17.0395 69.7395 16.2564 69.2469 15.5702C68.7542 14.8839 68.0473 14.3198 67.2 13.9368ZM35 4.44278L62.0375 16.6752L52.0188 21.2068L24.9779 8.97434L35 4.44278ZM35 28.9077L7.9625 16.6752L19.3712 11.5154L46.4087 23.7478L35 28.9077ZM5.38462 20.5674L32.3077 32.7386V56.5891L5.38462 44.4262V20.5674ZM64.6154 44.4151L37.6923 56.5891V32.7498L48.4615 27.8818V37.804C48.4615 38.3938 48.7452 38.9596 49.2501 39.3767C49.755 39.7937 50.4398 40.0281 51.1538 40.0281C51.8679 40.0281 52.5527 39.7937 53.0576 39.3767C53.5625 38.9596 53.8462 38.3938 53.8462 37.804V25.4464L64.6154 20.5674V44.4123V44.4151Z" fill="black"/>
</svg>
