<svg width="90" height="54" viewBox="0 0 90 54" fill="none" xmlns="http://www.w3.org/2000/svg">
<path d="M89.7825 19.8533L84.5325 9.01089C84.0871 8.09353 83.3185 7.3078 82.3263 6.75546C81.3341 6.20313 80.1639 5.90966 78.9675 5.91306H66V3.4348C66 2.77753 65.6839 2.14717 65.1213 1.68241C64.5587 1.21765 63.7956 0.956543 63 0.956543H6C4.4087 0.956543 2.88258 1.47875 1.75736 2.40827C0.632141 3.3378 0 4.59851 0 5.91306V40.6087C0 41.9233 0.632141 43.184 1.75736 44.1135C2.88258 45.043 4.4087 45.5652 6 45.5652H12.375C13.0359 47.6976 14.5371 49.5875 16.6419 50.9372C18.7468 52.2869 21.3355 53.0194 24 53.0194C26.6645 53.0194 29.2532 52.2869 31.3581 50.9372C33.4629 49.5875 34.9641 47.6976 35.625 45.5652H54.375C55.0359 47.6976 56.5371 49.5875 58.6419 50.9372C60.7467 52.2869 63.3355 53.0194 66 53.0194C68.6645 53.0194 71.2532 52.2869 73.3581 50.9372C75.4629 49.5875 76.9641 47.6976 77.625 45.5652H84C85.5913 45.5652 87.1174 45.043 88.2426 44.1135C89.3678 43.184 90 41.9233 90 40.6087V20.7826C90.001 20.4641 89.9271 20.1485 89.7825 19.8533ZM66 10.8696H78.9675L82.5675 18.3044H66V10.8696ZM6 5.91306H60V25.7391H6V5.91306ZM24 48.0435C22.8133 48.0435 21.6533 47.7528 20.6666 47.2082C19.6799 46.6635 18.9108 45.8894 18.4567 44.9837C18.0026 44.0781 17.8838 43.0815 18.1153 42.12C18.3468 41.1585 18.9182 40.2754 19.7574 39.5822C20.5965 38.889 21.6656 38.4169 22.8295 38.2257C23.9933 38.0344 25.1997 38.1326 26.2961 38.5077C27.3925 38.8829 28.3295 39.5182 28.9888 40.3333C29.6481 41.1484 30 42.1067 30 43.087C30 44.4015 29.3679 45.6622 28.2426 46.5918C27.1174 47.5213 25.5913 48.0435 24 48.0435ZM54.375 40.6087H35.625C34.9641 38.4764 33.4629 36.5864 31.3581 35.2367C29.2532 33.8871 26.6645 33.1545 24 33.1545C21.3355 33.1545 18.7468 33.8871 16.6419 35.2367C14.5371 36.5864 13.0359 38.4764 12.375 40.6087H6V30.6957H60V34.5091C58.6205 35.1678 57.413 36.0461 56.4474 37.0932C55.4818 38.1402 54.7774 39.3351 54.375 40.6087ZM66 48.0435C64.8133 48.0435 63.6533 47.7528 62.6666 47.2082C61.6799 46.6635 60.9108 45.8894 60.4567 44.9837C60.0026 44.0781 59.8838 43.0815 60.1153 42.12C60.3468 41.1585 60.9182 40.2754 61.7574 39.5822C62.5965 38.889 63.6656 38.4169 64.8294 38.2257C65.9933 38.0344 67.1997 38.1326 68.2961 38.5077C69.3924 38.8829 70.3295 39.5182 70.9888 40.3333C71.6481 41.1484 72 42.1067 72 43.087C72 44.4015 71.3678 45.6622 70.2426 46.5918C69.1174 47.5213 67.5913 48.0435 66 48.0435ZM84 40.6087H77.625C76.9562 38.4816 75.4521 36.5978 73.3485 35.2524C71.2448 33.907 68.6604 33.176 66 33.1739V23.2609H84V40.6087Z" fill="black"/>
</svg>
