<svg width="24" height="24" viewBox="0 0 24 24" fill="none" xmlns="http://www.w3.org/2000/svg">
<path d="M23.4137 10.1618L13.4137 0.561903C13.0387 0.20211 12.5302 0 12 0C11.4698 0 10.9613 0.20211 10.5863 0.561903L0.586262 10.1618C0.399643 10.3396 0.25171 10.5513 0.151067 10.7845C0.0504232 11.0177 -0.00092332 11.2677 1.25668e-05 11.5202V23.04C1.25668e-05 23.2946 0.10537 23.5388 0.292906 23.7188C0.480442 23.8989 0.734795 24 1.00001 24H9C9.26522 24 9.51957 23.8989 9.70711 23.7188C9.89465 23.5388 10 23.2946 10 23.04V16.3201H14V23.04C14 23.2946 14.1054 23.5388 14.2929 23.7188C14.4804 23.8989 14.7348 24 15 24H23C23.2652 24 23.5196 23.8989 23.7071 23.7188C23.8946 23.5388 24 23.2946 24 23.04V11.5202C24.0009 11.2677 23.9496 11.0177 23.8489 10.7845C23.7483 10.5513 23.6004 10.3396 23.4137 10.1618ZM22 22.08H16V15.3601C16 15.1055 15.8946 14.8613 15.7071 14.6813C15.5196 14.5013 15.2652 14.4001 15 14.4001H9C8.73479 14.4001 8.48043 14.5013 8.2929 14.6813C8.10536 14.8613 8 15.1055 8 15.3601V22.08H2.00001V11.5202L12 1.92029L22 11.5202V22.08Z" fill="white"/>
</svg>
