<svg width="65" height="57" viewBox="0 0 65 57" fill="none" xmlns="http://www.w3.org/2000/svg">
<path d="M59.5833 0.956543H5.41667C3.98008 0.956543 2.60233 1.42798 1.5865 2.26713C0.570683 3.10629 0 4.24443 0 5.43118V21.0924C0 35.8363 8.63958 44.7716 15.8878 49.6714C23.6945 54.9459 31.4607 56.7357 31.7992 56.8112C32.2647 56.9158 32.7556 56.9158 33.2211 56.8112C33.5596 56.7357 41.3156 54.9459 49.1326 49.6714C56.3604 44.7716 65 35.8363 65 21.0924V5.43118C65 4.24443 64.4293 3.10629 63.4135 2.26713C62.3977 1.42798 61.0199 0.956543 59.5833 0.956543ZM59.5833 21.0924C59.5833 31.4596 54.9589 39.8747 45.8385 46.1001C41.8684 48.8008 37.3532 50.9025 32.5 52.3086C27.7103 50.927 23.2509 48.8626 19.324 46.2091C10.0953 39.9726 5.41667 31.5239 5.41667 21.0924V5.43118H59.5833V21.0924ZM17.0422 29.3873C16.534 28.9675 16.2485 28.3981 16.2485 27.8044C16.2485 27.2107 16.534 26.6413 17.0422 26.2215C17.5504 25.8017 18.2396 25.5658 18.9583 25.5658C19.677 25.5658 20.3663 25.8017 20.8745 26.2215L27.0833 31.3533L44.1255 17.2722C44.3772 17.0643 44.6759 16.8994 45.0047 16.7869C45.3334 16.6744 45.6858 16.6165 46.0417 16.6165C46.3975 16.6165 46.7499 16.6744 47.0787 16.7869C47.4074 16.8994 47.7062 17.0643 47.9578 17.2722C48.2094 17.4801 48.409 17.7268 48.5452 17.9984C48.6814 18.27 48.7515 18.5611 48.7515 18.8551C48.7515 19.1491 48.6814 19.4402 48.5452 19.7118C48.409 19.9834 48.2094 20.2301 47.9578 20.438L28.9995 36.0992C28.7479 36.3073 28.4492 36.4723 28.1205 36.5849C27.7917 36.6975 27.4392 36.7554 27.0833 36.7554C26.7274 36.7554 26.375 36.6975 26.0462 36.5849C25.7174 36.4723 25.4187 36.3073 25.1672 36.0992L17.0422 29.3873Z" fill="black"/>
</svg>
