<svg width="26" height="28" viewBox="0 0 26 28" fill="none" xmlns="http://www.w3.org/2000/svg">
<path d="M24.7884 12.0486L17.4204 9.18223L14.7421 1.29671C14.6101 0.916108 14.3724 0.587853 14.061 0.35605C13.7496 0.124247 13.3793 0 13 0C12.6207 0 12.2504 0.124247 11.939 0.35605C11.6276 0.587853 11.3899 0.916108 11.2579 1.29671L8.57965 9.18223L1.21162 12.0486C0.855988 12.1898 0.549276 12.4442 0.332685 12.7775C0.116094 13.1108 0 13.5071 0 13.913C0 14.319 0.116094 14.7153 0.332685 15.0486C0.549276 15.3819 0.855988 15.6362 1.21162 15.7775L8.57965 18.6451L11.2579 26.5294C11.3899 26.91 11.6276 27.2382 11.939 27.47C12.2504 27.7018 12.6207 27.8261 13 27.8261C13.3793 27.8261 13.7496 27.7018 14.061 27.47C14.3724 27.2382 14.6101 26.91 14.7421 26.5294L17.4215 18.6439L24.7884 15.7775C25.144 15.6362 25.4507 15.3819 25.6673 15.0486C25.8839 14.7153 26 14.319 26 13.913C26 13.5071 25.8839 13.1108 25.6673 12.7775C25.4507 12.4442 25.144 12.1898 24.7884 12.0486ZM16.3774 16.9335C16.25 16.9832 16.1342 17.0621 16.0383 17.1647C15.9424 17.2674 15.8687 17.3913 15.8222 17.5277L13 25.8333L10.1778 17.5277C10.1313 17.3913 10.0576 17.2674 9.9617 17.1647C9.86579 17.0621 9.75005 16.9832 9.6226 16.9335L1.86201 13.913L9.6226 10.8926C9.75005 10.8429 9.86579 10.764 9.9617 10.6613C10.0576 10.5587 10.1313 10.4348 10.1778 10.2984L13 1.99279L15.8222 10.2984C15.8687 10.4348 15.9424 10.5587 16.0383 10.6613C16.1342 10.764 16.25 10.8429 16.3774 10.8926L24.138 13.913L16.3774 16.9335Z" fill="#021E25"/>
<path d="M1 14L13 9.66987V18.3301L1 14Z" fill="#021E25"/>
<line x1="12.5" y1="2" x2="12.5" y2="26" stroke="#021E25"/>
<line x1="9.45957" y1="15.803" x2="12.4596" y2="22.803" stroke="#021E25"/>
<line x1="12.4472" y1="5.22361" x2="9.44721" y2="11.2236" stroke="#021E25"/>
<line x1="11" y1="16" x2="11" y2="21" stroke="#021E25" stroke-width="2"/>
<line x1="11" y1="7" x2="11" y2="11" stroke="#021E25" stroke-width="2"/>
</svg>
