<svg width="26" height="28" viewBox="0 0 26 28" fill="none" xmlns="http://www.w3.org/2000/svg">
<mask id="path-1-inside-1_2029_2" fill="white">
<path d="M24.7884 12.0486L17.4204 9.18223L14.7421 1.29671C14.6101 0.916108 14.3724 0.587853 14.061 0.35605C13.7496 0.124247 13.3793 0 13 0C12.6207 0 12.2504 0.124247 11.939 0.35605C11.6276 0.587853 11.3899 0.916108 11.2579 1.29671L8.57965 9.18223L1.21162 12.0486C0.855988 12.1898 0.549276 12.4442 0.332685 12.7775C0.116094 13.1108 0 13.5071 0 13.913C0 14.319 0.116094 14.7153 0.332685 15.0486C0.549276 15.3819 0.855988 15.6362 1.21162 15.7775L8.57965 18.6451L11.2579 26.5294C11.3899 26.91 11.6276 27.2382 11.939 27.47C12.2504 27.7018 12.6207 27.8261 13 27.8261C13.3793 27.8261 13.7496 27.7018 14.061 27.47C14.3724 27.2382 14.6101 26.91 14.7421 26.5294L17.4215 18.6439L24.7884 15.7775C25.144 15.6362 25.4507 15.3819 25.6673 15.0486C25.8839 14.7153 26 14.319 26 13.913C26 13.5071 25.8839 13.1108 25.6673 12.7775C25.4507 12.4442 25.144 12.1898 24.7884 12.0486ZM16.3774 16.9335C16.25 16.9832 16.1342 17.0621 16.0383 17.1647C15.9424 17.2674 15.8687 17.3913 15.8222 17.5277L13 25.8333L10.1778 17.5277C10.1313 17.3913 10.0576 17.2674 9.9617 17.1647C9.86579 17.0621 9.75005 16.9832 9.6226 16.9335L1.86201 13.913L9.6226 10.8926C9.75005 10.8429 9.86579 10.764 9.9617 10.6613C10.0576 10.5587 10.1313 10.4348 10.1778 10.2984L13 1.99279L15.8222 10.2984C15.8687 10.4348 15.9424 10.5587 16.0383 10.6613C16.1342 10.764 16.25 10.8429 16.3774 10.8926L24.138 13.913L16.3774 16.9335Z"/>
</mask>
<path d="M24.7884 12.0486L17.4204 9.18223L14.7421 1.29671C14.6101 0.916108 14.3724 0.587853 14.061 0.35605C13.7496 0.124247 13.3793 0 13 0C12.6207 0 12.2504 0.124247 11.939 0.35605C11.6276 0.587853 11.3899 0.916108 11.2579 1.29671L8.57965 9.18223L1.21162 12.0486C0.855988 12.1898 0.549276 12.4442 0.332685 12.7775C0.116094 13.1108 0 13.5071 0 13.913C0 14.319 0.116094 14.7153 0.332685 15.0486C0.549276 15.3819 0.855988 15.6362 1.21162 15.7775L8.57965 18.6451L11.2579 26.5294C11.3899 26.91 11.6276 27.2382 11.939 27.47C12.2504 27.7018 12.6207 27.8261 13 27.8261C13.3793 27.8261 13.7496 27.7018 14.061 27.47C14.3724 27.2382 14.6101 26.91 14.7421 26.5294L17.4215 18.6439L24.7884 15.7775C25.144 15.6362 25.4507 15.3819 25.6673 15.0486C25.8839 14.7153 26 14.319 26 13.913C26 13.5071 25.8839 13.1108 25.6673 12.7775C25.4507 12.4442 25.144 12.1898 24.7884 12.0486ZM16.3774 16.9335C16.25 16.9832 16.1342 17.0621 16.0383 17.1647C15.9424 17.2674 15.8687 17.3913 15.8222 17.5277L13 25.8333L10.1778 17.5277C10.1313 17.3913 10.0576 17.2674 9.9617 17.1647C9.86579 17.0621 9.75005 16.9832 9.6226 16.9335L1.86201 13.913L9.6226 10.8926C9.75005 10.8429 9.86579 10.764 9.9617 10.6613C10.0576 10.5587 10.1313 10.4348 10.1778 10.2984L13 1.99279L15.8222 10.2984C15.8687 10.4348 15.9424 10.5587 16.0383 10.6613C16.1342 10.764 16.25 10.8429 16.3774 10.8926L24.138 13.913L16.3774 16.9335Z" fill="#021E25"/>
<path d="M24.7884 12.0486L35.8641 -15.8321L35.7647 -15.8715L35.665 -15.9103L24.7884 12.0486ZM17.4204 9.18223L-10.986 18.8301L-6.48878 32.0712L6.54372 37.1411L17.4204 9.18223ZM14.7421 1.29671L43.1484 -8.35117L43.1174 -8.44248L43.0858 -8.5336L14.7421 1.29671ZM13 0L13 30L13 0ZM11.2579 1.29671L-17.0858 -8.5336L-17.1174 -8.44248L-17.1484 -8.35117L11.2579 1.29671ZM8.57965 9.18223L19.4563 37.1411L32.4888 32.0712L36.986 18.8301L8.57965 9.18223ZM1.21162 12.0486L-9.66502 -15.9103L-9.76468 -15.8715L-9.86407 -15.8321L1.21162 12.0486ZM1.21162 15.7775L-9.86407 43.6581L-9.76673 43.6968L-9.66912 43.7348L1.21162 15.7775ZM8.57965 18.6451L36.9855 8.99585L32.4888 -4.24162L19.4604 -9.31218L8.57965 18.6451ZM11.2579 26.5294L-17.148 36.1786L-17.1172 36.2693L-17.0858 36.3597L11.2579 26.5294ZM14.7421 26.5294L43.0858 36.3597L43.1168 36.2704L43.1472 36.181L14.7421 26.5294ZM17.4215 18.6439L6.54339 -9.31444L-6.48568 -4.24504L-10.9835 8.99222L17.4215 18.6439ZM24.7884 15.7775L35.6665 43.7358L35.7654 43.6973L35.8641 43.6581L24.7884 15.7775ZM16.3774 16.9335L5.49633 -11.0237L5.48441 -11.019L16.3774 16.9335ZM15.8222 17.5277L-12.579 7.86479L-12.5827 7.87571L15.8222 17.5277ZM13 25.8333L-15.4049 35.4852L13 119.079L41.4049 35.4852L13 25.8333ZM10.1778 17.5277L38.5827 7.87571L38.579 7.86479L10.1778 17.5277ZM9.6226 16.9335L20.5156 -11.019L20.5037 -11.0236L9.6226 16.9335ZM1.86201 13.913L-9.01906 -14.0441L-80.8504 13.913L-9.01906 41.8702L1.86201 13.913ZM9.6226 10.8926L20.5037 38.8497L20.5156 38.8451L9.6226 10.8926ZM10.1778 10.2984L38.579 19.9613L38.5827 19.9504L10.1778 10.2984ZM13 1.99279L41.4049 -7.65916L13 -91.2527L-15.4049 -7.65916L13 1.99279ZM15.8222 10.2984L-12.5827 19.9504L-12.579 19.9613L15.8222 10.2984ZM16.3774 10.8926L5.48441 38.8451L5.49633 38.8497L16.3774 10.8926ZM24.138 13.913L35.0191 41.8702L106.85 13.913L35.0191 -14.0441L24.138 13.913ZM35.665 -15.9103L28.297 -18.7766L6.54372 37.1411L13.9117 40.0074L35.665 -15.9103ZM45.8267 -0.465653L43.1484 -8.35117L-13.6642 10.9446L-10.986 18.8301L45.8267 -0.465653ZM43.0858 -8.5336C41.0614 -14.3707 37.2998 -19.7448 31.9736 -23.7093L-3.85152 24.4214C-8.55494 20.9205 -11.8411 16.2029 -13.6016 11.127L43.0858 -8.5336ZM31.9736 -23.7093C26.6155 -27.6975 19.9938 -30 13 -30L13 30C6.76488 30 0.88371 27.946 -3.85152 24.4214L31.9736 -23.7093ZM13 -30C6.0062 -30 -0.615471 -27.6975 -5.97355 -23.7093L29.8515 24.4214C25.1163 27.946 19.2351 30 13 30L13 -30ZM-5.97355 -23.7093C-11.2998 -19.7448 -15.0614 -14.3707 -17.0858 -8.5336L39.6016 11.127C37.8411 16.2029 34.5549 20.9205 29.8515 24.4214L-5.97355 -23.7093ZM-17.1484 -8.35117L-19.8267 -0.465653L36.986 18.8301L39.6642 10.9446L-17.1484 -8.35117ZM-2.29699 -18.7766L-9.66502 -15.9103L12.0883 40.0074L19.4563 37.1411L-2.29699 -18.7766ZM-9.86407 -15.8321C-16.2278 -13.3041 -21.36 -8.89745 -24.8224 -3.56934L25.4878 29.1244C22.4586 33.7859 17.9398 37.6837 12.2873 39.9292L-9.86407 -15.8321ZM-24.8224 -3.56934C-28.2718 1.73863 -30 7.83556 -30 13.913L30 13.913C30 19.1786 28.504 24.483 25.4878 29.1244L-24.8224 -3.56934ZM-30 13.913C-30 19.9905 -28.2718 26.0875 -24.8224 31.3954L25.4878 -1.29827C28.504 3.34311 30 8.64752 30 13.913L-30 13.913ZM-24.8224 31.3954C-21.36 36.7235 -16.2278 41.1301 -9.86407 43.6581L12.2873 -12.1031C17.9398 -9.85764 22.4586 -5.95978 25.4878 -1.29827L-24.8224 31.3954ZM-9.66912 43.7348L-2.30109 46.6024L19.4604 -9.31218L12.0924 -12.1798L-9.66912 43.7348ZM-19.8262 28.2943L-17.148 36.1786L39.6637 16.8801L36.9855 8.99585L-19.8262 28.2943ZM-17.0858 36.3597C-15.0614 42.1968 -11.2998 47.5709 -5.97355 51.5354L29.8515 3.40469C34.5549 6.90558 37.8411 11.6232 39.6016 16.6991L-17.0858 36.3597ZM-5.97355 51.5354C-0.615471 55.5236 6.0062 57.8261 13 57.8261L13 -2.17391C19.2351 -2.17391 25.1163 -0.119883 29.8515 3.40469L-5.97355 51.5354ZM13 57.8261C19.9938 57.8261 26.6155 55.5236 31.9736 51.5354L-3.85152 3.40469C0.88371 -0.119883 6.76488 -2.17391 13 -2.17391L13 57.8261ZM31.9736 51.5354C37.2998 47.5709 41.0614 42.1968 43.0858 36.3597L-13.6016 16.6991C-11.8411 11.6232 -8.55494 6.90558 -3.85152 3.40469L31.9736 51.5354ZM43.1472 36.181L45.8265 28.2955L-10.9835 8.99222L-13.6629 16.8777L43.1472 36.181ZM28.2996 46.6022L35.6665 43.7358L13.9103 -12.1808L6.54339 -9.31444L28.2996 46.6022ZM35.8641 43.6581C42.2278 41.1301 47.36 36.7235 50.8224 31.3954L0.512184 -1.29827C3.54143 -5.95978 8.06024 -9.85764 13.7127 -12.1031L35.8641 43.6581ZM50.8224 31.3954C54.2718 26.0875 56 19.9905 56 13.913L-4 13.913C-4 8.64752 -2.50397 3.34311 0.512184 -1.29827L50.8224 31.3954ZM56 13.913C56 7.83556 54.2718 1.73863 50.8224 -3.56934L0.512184 29.1244C-2.50397 24.483 -4 19.1786 -4 13.913L56 13.913ZM50.8224 -3.56934C47.36 -8.89745 42.2278 -13.3041 35.8641 -15.8321L13.7127 39.9292C8.06024 37.6837 3.54143 33.7859 0.512184 29.1244L50.8224 -3.56934ZM5.48441 -11.019C1.05258 -9.29194 -2.80212 -6.61315 -5.88196 -3.31701L37.9586 37.6465C35.0705 40.7373 31.4473 43.2583 27.2704 44.886L5.48441 -11.019ZM-5.88196 -3.31701C-8.9558 -0.0272795 -11.1993 3.80956 -12.579 7.86479L44.2235 27.1905C42.9366 30.9729 40.8406 34.562 37.9586 37.6465L-5.88196 -3.31701ZM-12.5827 7.87571L-15.4049 16.1814L41.4049 35.4852L44.2272 27.1796L-12.5827 7.87571ZM41.4049 16.1814L38.5827 7.87571L-18.2272 27.1796L-15.4049 35.4852L41.4049 16.1814ZM38.579 7.86479C37.1993 3.80967 34.9559 -0.0272002 31.882 -3.31701L-11.9586 37.6465C-14.8407 34.562 -16.9366 30.9728 -18.2235 27.1905L38.579 7.86479ZM31.882 -3.31701C28.8021 -6.61321 24.9474 -9.29196 20.5156 -11.019L-1.27039 44.886C-5.44726 43.2583 -9.0705 40.7374 -11.9586 37.6465L31.882 -3.31701ZM20.5037 -11.0236L12.7431 -14.0441L-9.01906 41.8702L-1.25847 44.8907L20.5037 -11.0236ZM12.7431 41.8702L20.5037 38.8497L-1.25847 -17.0646L-9.01906 -14.0441L12.7431 41.8702ZM20.5156 38.8451C24.9472 37.1181 28.802 34.4394 31.882 31.1431L-11.9586 -9.8204C-9.07041 -12.9114 -5.44715 -15.4323 -1.27039 -17.0599L20.5156 38.8451ZM31.882 31.1431C34.9559 27.8532 37.1993 24.0163 38.579 19.9613L-18.2235 0.63557C-16.9366 -3.14669 -14.8407 -6.73583 -11.9586 -9.8204L31.882 31.1431ZM38.5827 19.9504L41.4049 11.6447L-15.4049 -7.65916L-18.2272 0.64649L38.5827 19.9504ZM-15.4049 11.6447L-12.5827 19.9504L44.2272 0.64649L41.4049 -7.65916L-15.4049 11.6447ZM-12.579 19.9613C-11.1993 24.0165 -8.95585 27.8533 -5.88196 31.1431L37.9586 -9.8204C40.8406 -6.73591 42.9366 -3.14679 44.2235 0.63557L-12.579 19.9613ZM-5.88196 31.1431C-2.80204 34.4393 1.05269 37.1181 5.48441 38.8451L27.2704 -17.0599C31.4472 -15.4322 35.0705 -12.9113 37.9586 -9.8204L-5.88196 31.1431ZM5.49633 38.8497L13.2569 41.8702L35.0191 -14.0441L27.2585 -17.0646L5.49633 38.8497ZM13.2569 -14.0441L5.49633 -11.0236L27.2585 44.8907L35.0191 41.8702L13.2569 -14.0441Z" fill="#021E25" mask="url(#path-1-inside-1_2029_2)"/>
<path d="M12.5 1L17.2631 10.75H7.73686L12.5 1Z" fill="#021E25"/>
<path d="M13 27L9.5359 18H16.4641L13 27Z" fill="#021E25"/>
<rect x="10" y="10" width="8" height="8" fill="#021E25"/>
<path d="M1 13.5L10 9.60289V17.3971L1 13.5Z" fill="#021E25"/>
<path d="M26 14L17 17.4641V10.5359L26 14Z" fill="#021E25"/>
</svg>
