<svg width="30" height="30" viewBox="0 0 30 30" fill="none" xmlns="http://www.w3.org/2000/svg">
<path d="M29.8299 28.1746C27.6354 24.2292 24.2536 21.4002 20.3069 20.0591C22.2591 18.8505 23.7758 17.009 24.6242 14.8172C25.4725 12.6255 25.6056 10.2048 25.0029 7.92681C24.4003 5.64883 23.0952 3.63956 21.2881 2.20755C19.4811 0.775552 17.2719 0 15 0C12.7281 0 10.5189 0.775552 8.71187 2.20755C6.90481 3.63956 5.59974 5.64883 4.99707 7.92681C4.3944 10.2048 4.52745 12.6255 5.37581 14.8172C6.22416 17.009 7.7409 18.8505 9.6931 20.0591C5.74643 21.3987 2.3646 24.2277 0.170081 28.1746C0.0896038 28.311 0.0362241 28.4629 0.013091 28.6211C-0.0100421 28.7794 -0.00246004 28.9408 0.0353899 29.096C0.0732398 29.2512 0.140591 29.3969 0.233469 29.5245C0.326348 29.6522 0.442872 29.7592 0.576167 29.8393C0.709462 29.9193 0.856828 29.9708 1.00957 29.9907C1.16231 30.0106 1.31734 29.9985 1.4655 29.955C1.61366 29.9116 1.75195 29.8378 1.87222 29.7378C1.99249 29.6379 2.09229 29.514 2.16575 29.3733C4.88044 24.4944 9.67869 21.5815 15 21.5815C20.3213 21.5815 25.1196 24.4944 27.8342 29.3733C27.9077 29.514 28.0075 29.6379 28.1278 29.7378C28.248 29.8378 28.3863 29.9116 28.5345 29.955C28.6827 29.9985 28.8377 30.0106 28.9904 29.9907C29.1432 29.9708 29.2905 29.9193 29.4238 29.8393C29.5571 29.7592 29.6737 29.6522 29.7665 29.5245C29.8594 29.3969 29.9268 29.2512 29.9646 29.096C30.0025 28.9408 30.01 28.7794 29.9869 28.6211C29.9638 28.4629 29.9104 28.311 29.8299 28.1746ZM6.93086 10.7928C6.93086 9.13315 7.40411 7.51079 8.29076 6.13087C9.17741 4.75094 10.4376 3.67542 11.9121 3.04031C13.3865 2.4052 15.009 2.23902 16.5742 2.5628C18.1395 2.88657 19.5772 3.68576 20.7057 4.85929C21.8342 6.03282 22.6027 7.52799 22.9141 9.15573C23.2254 10.7835 23.0656 12.4707 22.4549 14.0039C21.8442 15.5372 20.8099 16.8478 19.483 17.7698C18.156 18.6918 16.5959 19.184 15 19.184C12.8606 19.1816 10.8095 18.2968 9.29679 16.7236C7.78403 15.1505 6.93315 13.0175 6.93086 10.7928Z" fill="#021E25"/>
</svg>
