<svg width="89" height="65" viewBox="0 0 89 65" fill="none" xmlns="http://www.w3.org/2000/svg">
<path d="M0 0H88.2643V8.02401H0V0ZM0 56.1683H88.2643V64.1921H0V56.1683ZM74.7117 43.7872L74.0136 40.2967H66.1944L64.9505 43.7591L58.6839 43.7711C62.716 34.1182 65.7045 26.9608 67.6544 22.3148C68.1641 21.0992 69.071 20.4813 70.4028 20.4893C71.4216 20.4974 73.0868 20.4974 75.3978 20.4893L80.2405 43.7791L74.7117 43.7872ZM67.9553 35.5144H72.9948L71.1087 26.7682L67.9553 35.5144ZM27.5706 20.4854L33.8695 20.4934L24.1323 43.7872L17.7532 43.7831C15.5987 35.4782 14.0139 29.3158 13.0029 25.3078C12.694 24.0761 12.0802 23.2175 10.8926 22.8123C9.83744 22.4512 8.08018 21.8895 5.61682 21.1313V20.4893H15.683C17.4242 20.4893 18.4392 21.3319 18.7682 23.057L21.2557 36.2526L27.5706 20.4854ZM42.5234 20.4934L37.5485 43.7831L31.5505 43.7751L36.5254 20.4854L42.5234 20.4934ZM54.6878 20.0601C56.4771 20.0601 58.7399 20.6137 60.0398 21.1313L58.9884 25.9618C57.8131 25.4883 55.8794 24.8504 54.2545 24.8785C51.8874 24.9146 50.427 25.9056 50.427 26.8564C50.427 28.397 52.9626 29.1754 55.5785 30.8644C58.5593 32.7902 58.9487 34.5154 58.9126 36.393C58.8723 40.2886 55.5785 44.1322 48.6257 44.1322C45.4521 44.084 44.3087 43.8192 41.725 42.9045L42.8162 37.8654C45.4481 38.9647 46.5675 39.3137 48.8142 39.3137C50.8804 39.3137 52.6497 38.4832 52.6657 37.0349C52.6738 36.0038 52.0439 35.4943 49.729 34.2185C47.4141 32.9466 44.1723 31.1854 44.2125 27.6387C44.2646 23.1052 48.5775 20.0601 54.6878 20.0601Z" fill="#021E25"/>
</svg>
